<svg id="Calque_1" data-name="Calque 1" xmlns="http://www.w3.org/2000/svg" viewBox="0 0 370.61 152.62"><defs><style>.cls-1{fill:#101410;}.cls-2{fill:#00a563;}</style></defs><path class="cls-1" d="M219,333.52l-45.54,71.63H160.38l-16.89-71.63H157.2L170,388.57l35.2-55.05Z" transform="translate(-79.13 -333.52)"/><path class="cls-1" d="M273.23,350.51l-10.94,54.64H250.11l1.23-6q-7.36,6.76-18.52,6.76-9,0-14.38-4.86t-5.37-13.66a30.35,30.35,0,0,1,.72-6.55l6-30.29h12.79l-6,30a20.85,20.85,0,0,0-.41,4.2c0,3.2.9,5.66,2.71,7.36s4.52,2.56,8.13,2.56a17.16,17.16,0,0,0,11.57-3.94q4.6-3.93,6.13-11.82l5.73-28.34Z" transform="translate(-79.13 -333.52)"/><path class="cls-1" d="M335.45,381.62H292.06q.31,13.39,15.76,13.4a25.6,25.6,0,0,0,8.8-1.48,20.12,20.12,0,0,0,7-4.15l5.32,8.9A27.24,27.24,0,0,1,318.82,404a40,40,0,0,1-12.33,1.9,32.16,32.16,0,0,1-14.27-3,21.73,21.73,0,0,1-9.37-8.44,24.17,24.17,0,0,1-3.27-12.64,33.33,33.33,0,0,1,4-16.42A28.94,28.94,0,0,1,294.88,354a32.22,32.22,0,0,1,16.21-4.09q11.46,0,18.32,6.39t6.85,17.55A37.15,37.15,0,0,1,335.45,381.62Zm-36-18a17.75,17.75,0,0,0-6.29,9.51H324.5q.09-6.14-3.74-9.56t-10.28-3.43A17.57,17.57,0,0,0,299.48,363.61Z" transform="translate(-79.13 -333.52)"/><path class="cls-2" d="M127.78,444.86a100.06,100.06,0,0,0-13.56-3.74,59.77,59.77,0,0,1-10.54-3q-3.27-1.44-3.27-4.3a5.36,5.36,0,0,1,2.76-4.65c1.84-1.2,4.78-1.8,8.8-1.8q9.61,0,19.85,5.53l6.24-15A42.58,42.58,0,0,0,126,413.24a62,62,0,0,0-13.92-1.58q-10.33,0-17.44,3.07a23.83,23.83,0,0,0-10.69,8.34,20.52,20.52,0,0,0-3.59,11.81q0,7.47,3.89,11.87a22.7,22.7,0,0,0,9.31,6.4,102.43,102.43,0,0,0,13.51,3.73A61.94,61.94,0,0,1,117.75,460q3.33,1.49,3.33,4.56,0,5.83-11.67,5.83a42.65,42.65,0,0,1-12.48-1.94,43.2,43.2,0,0,1-11.15-5.12l-6.65,14.94A41.37,41.37,0,0,0,92.43,484a66.25,66.25,0,0,0,16.88,2.15q10.23,0,17.4-3.12a24.43,24.43,0,0,0,10.74-8.34A20.14,20.14,0,0,0,141,463q0-7.47-3.94-11.82A23.53,23.53,0,0,0,127.78,444.86Z" transform="translate(-79.13 -333.52)"/><path class="cls-2" d="M176.94,470.59a5.54,5.54,0,0,1-4.24-1.68,6.54,6.54,0,0,1-1.59-4.66V445.83H183.8V431.3H171.11V416.87H151.67V431.3h-8.08v14.53h8.08v18.62q0,10.55,5.83,15.86t16.68,5.32a33.54,33.54,0,0,0,7.52-.81,19.52,19.52,0,0,0,6-2.36l-4.81-13.61A10.33,10.33,0,0,1,176.94,470.59Z" transform="translate(-79.13 -333.52)"/><path class="cls-2" d="M237.52,432a35.3,35.3,0,0,0-16.17-3.64A34.93,34.93,0,0,0,205.24,432a28,28,0,0,0,0,50,37.12,37.12,0,0,0,32.23,0,27.39,27.39,0,0,0,11.15-10.23,28,28,0,0,0,4-14.84,27.67,27.67,0,0,0-4-14.78A27.23,27.23,0,0,0,237.52,432Zm-7.78,34.68a11.74,11.74,0,0,1-16.78,0q-3.27-3.52-3.27-9.77t3.27-9.62a11.88,11.88,0,0,1,16.78,0q3.27,3.48,3.28,9.62T229.74,466.65Z" transform="translate(-79.13 -333.52)"/><path class="cls-2" d="M297.78,428.33a26.23,26.23,0,0,0-9.82,1.8,22.07,22.07,0,0,0-7.78,5.16v-6H261.66v55.45h19.45v-26.8q0-6.56,3-9.83a10.42,10.42,0,0,1,8-3.27q9.1,0,9.1,11.36v28.54H320.7V453q0-12.37-6.29-18.52T297.78,428.33Z" transform="translate(-79.13 -333.52)"/><path class="cls-2" d="M437.55,452.69a86.2,86.2,0,0,0-11.35-2.36,53.56,53.56,0,0,1-7.78-1.58c-1.57-.51-2.35-1.42-2.35-2.71s.71-2.1,2.14-2.82a16.08,16.08,0,0,1,6.76-1.07,32.3,32.3,0,0,1,16,4.09l5.83-13.2a34.5,34.5,0,0,0-9.92-3.48,58.88,58.88,0,0,0-12-1.23,39.67,39.67,0,0,0-14.58,2.41,21,21,0,0,0-9.26,6.55,15.13,15.13,0,0,0-3.18,9.46q0,6.45,3.38,10a17.38,17.38,0,0,0,8,4.91,75.47,75.47,0,0,0,11.31,2.15,50.22,50.22,0,0,1,7.62,1.48c1.6.52,2.41,1.39,2.41,2.61a3.06,3.06,0,0,1-2,2.82q-2,1-6.7,1a40.35,40.35,0,0,1-10.34-1.38,32.79,32.79,0,0,1-9-3.74l-5.83,13.31a36.43,36.43,0,0,0,10.84,4.14,59.74,59.74,0,0,0,13.72,1.58,41.94,41.94,0,0,0,14.88-2.35,20.66,20.66,0,0,0,9.37-6.5,15,15,0,0,0,3.17-9.36q0-6.35-3.33-9.87A17.36,17.36,0,0,0,437.55,452.69Z" transform="translate(-79.13 -333.52)"/><polygon class="cls-2" points="316.06 95.73 293.04 95.73 273.19 115.06 273.19 81.31 303.61 50.88 318.11 65.39 351.7 31.8 359.93 40.03 370.61 0.15 330.74 10.85 338.97 19.07 318.11 39.94 303.61 25.43 253.78 75.27 253.75 75.27 253.75 75.3 253.75 151.19 273.19 151.19 273.19 137.59 278.92 131.75 294.47 151.19 318.01 151.19 293.04 119.47 316.06 95.73"/></svg>